:SAMPLES-PER-SECOND 30
:FULLY-SPECIFIED
:DEGREES
179
root  34.79456864 36.573383 -14.17880171 9.850376129 -3.932761908 4.042855263
lowerback  -7.979343414 0.05283342674 -1.374070048
upperback  -4.058750153 0.7717270255 -4.768229961
thorax  0.3213059902 0.6096785069 -4.099269867
lowerneck  -6.993830204 -14.81739998 -9.553009987
upperneck  14.11009979 -20.78499985 13.2954998
head  7.920802593 -9.297516823 3.625394821
lclavicle  0 -4.497500157e-015 -2.743230041e-014
lhumerus  -47.62390137 30.9183979 60.68619919
lradius  0.02268186584 -6.507048965e-006 28.97389984
lwrist  3.192251654e-007 -3.790274832e-007 -30.27350044
lhand  -4.448069638e-031 -37.45270157 -10.50990009
lfingers  90 7.125020027 -90
lthumb  95.03823655 -25.32895355 101.644127
rclavicle  0 -4.497500157e-015 -2.743230041e-014
rhumerus  19.28689766 -36.71760178 -39.18780136
rradius  -5.16745672e-007 2.214343908e-008 39.32960129
rwrist  0.0003490542294 -0.002273720223 -159.2669983
rhand  -1.77188402e-031 4.84126997 -7.754370213
rfingers  -90 -7.125020027 -90
rthumb  -85.08383498 -8.370105552 -59.42144982
rfemur  -11.30579758 15.12802601 12.25101852
rtibia  -0.5603877306 -1.464263082 18.42757416
rfoot  1.398927569 -21.6721344 -35.48707199
rtoes  3.849770177 19.64089027 -101.3210288
lfemur  -2.604624271 -17.03020477 -23.58872414
ltibia  7.992512703 -0.8902007341 5.093619347
lfoot  0.2939305604 -19.40302849 36.36611938
ltoes  -8.677241625 -18.0894386 -116.1746624
180
root  34.795674 36.57294446 -14.18207574 9.834161758 -3.946092367 4.045166016
lowerback  -7.97743988 0.05543481186 -1.341130376
upperback  -4.066929817 0.773506999 -4.762201309
thorax  0.3166440129 0.6091932654 -4.122580051
lowerneck  -7.004260063 -14.8046999 -9.528180122
upperneck  14.12139988 -20.76609993 13.26840019
head  7.918300152 -9.288459778 3.617229939
lclavicle  0 -4.497500157e-015 -2.743230041e-014
lhumerus  -47.66749954 30.9769001 60.64889908
lradius  0.02243713103 -6.507048965e-006 28.98330116
lwrist  3.192251654e-007 -3.790274832e-007 -30.35479927
lhand  -4.446868818e-031 -37.43249893 -10.63160038
lfingers  90 7.125020027 -90
lthumb  95.05601971 -25.44887915 101.6342937
rclavicle  0 -4.497500157e-015 -2.743230041e-014
rhumerus  19.23769951 -36.68320084 -39.15090179
rradius  -5.16745672e-007 2.214343908e-008 39.35290146
rwrist  0.0003490542294 -0.002273720223 -159.3370056
rhand  -1.771580338e-031 4.723889828 -7.614739895
rfingers  -90 -7.125020027 -90
rthumb  -85.03920942 -8.482337974 -59.52528987
rfemur  -11.30293369 15.14774513 12.25265789
rtibia  -0.5640565753 -1.457248926 18.44703484
rfoot  1.392454505 -21.66819954 -35.48916626
rtoes  3.833923246 19.64387185 -101.2738861
lfemur  -2.739086151 -16.99957848 -23.53363609
ltibia  7.881122112 -0.8641270399 5.329204082
lfoot  0.3143831789 -19.55204773 36.34879684
ltoes  -8.682020026 -18.08720528 -116.1900526
181
root  34.79593532 36.57342806 -14.18498783 9.838414192 -3.943348169 4.043205261
lowerback  -7.963008404 0.05905589089 -1.329879999
upperback  -4.064640045 0.7769796252 -4.757740498
thorax  0.3113000095 0.6081734896 -4.135570049
lowerneck  -7.013400078 -14.80179977 -9.509420395
upperneck  14.11509991 -20.76260185 13.26599979
head  7.915100098 -9.285810471 3.614010096
lclavicle  0 -4.497500157e-015 -2.743230041e-014
lhumerus  -47.64350128 30.9552002 60.66059875
lradius  0.02202478983 -6.507048965e-006 28.97579002
lwrist  3.192251654e-007 -3.790274832e-007 -30.36429977
lhand  -4.445722858e-031 -37.41320038 -10.73250008
lfingers  90 7.125020027 -90
lthumb  95.06946723 -25.54847534 101.6232695
rclavicle  0 -4.497500157e-015 -2.743230041e-014
rhumerus  19.21269989 -36.70339966 -39.13249969
rradius  -5.16745672e-007 2.214343908e-008 39.35469818
rwrist  0.0003490542294 -0.002273720223 -159.371994
rhand  -1.771080799e-031 4.52410984 -7.264560223
rfingers  -90 -7.125020027 -90
rthumb  -84.90647594 -8.771361956 -59.69309881
rfemur  -11.33564854 15.15350628 12.25511646
rtibia  -0.5703710914 -1.460206866 18.49028206
rfoot  1.357498407 -21.70165062 -35.52548599
rtoes  3.847099621 19.64139363 -101.3130837
lfemur  -2.785419226 -16.99777603 -23.51210594
ltibia  7.853415489 -0.8579595685 5.386436462
lfoot  0.3164363503 -19.57511711 36.35199356
ltoes  -8.681632681 -18.08738637 -116.188805
182
root  34.79692054 36.57383656 -14.18786988 9.840242386 -3.957284927 4.039123058
lowerback  -7.960299969 0.06273829937 -1.319660306
upperback  -4.066390038 0.7806270123 -4.756268024
thorax  0.3078739941 0.606531322 -4.139840126
lowerneck  -6.997819901 -14.79450035 -9.493459702
upperneck  14.07989979 -20.74900055 13.24919987
head  7.895468712 -9.282326698 3.610358953
lclavicle  0 -4.497500157e-015 -2.743230041e-014
lhumerus  -47.63740158 30.94739914 60.68299866
lradius  0.0214352347 -6.507048965e-006 28.97929955
lwrist  3.192251654e-007 -3.790274832e-007 -30.35111809
lhand  -4.44261081e-031 -37.3606987 -10.75469971
lfingers  90 7.125020027 -90
lthumb  95.04975088 -25.57223674 101.5692926
rclavicle  0 -4.497500157e-015 -2.743230041e-014
rhumerus  19.20490074 -36.7541008 -39.14619827
rradius  -5.16745672e-007 2.214343908e-008 39.37760162
rwrist  0.0003490542294 -0.002273720223 -159.3670044
rhand  -1.770601404e-031 4.323619843 -7.260509968
rfingers  -90 -7.125020027 -90
rthumb  -84.95130306 -8.762095042 -59.88835498
rfemur  -11.36304474 15.14892197 12.2549963
rtibia  -0.5753620863 -1.442266226 18.51994324
rfoot  1.360697985 -21.6661911 -35.48758316
rtoes  3.862054211 19.63857022 -101.357577
lfemur  -2.831976652 -17.01818466 -23.49818993
ltibia  7.815292835 -0.8699917197 5.468094826
lfoot  0.310872972 -19.57130051 36.35040283
ltoes  -8.651883418 -18.10126469 -116.0930196
